<svg xmlns="http://www.w3.org/2000/svg" width="18" height="18" viewBox="0 0 18 18">
    <g fill="#283741" fill-rule="nonzero">
        <path d="M16.341.247a1 1 0 1 1 1.317 1.506l-8 6a1 1 0 0 1-1.317 0l-8-6A1 1 0 0 1 1.658.247L9 5.671 16.341.247z" opacity=".4"/>
        <path d="M16.341 10.247a1 1 0 0 1 1.317 1.506l-8 6a1 1 0 0 1-1.317 0l-8-6a1 1 0 0 1 1.317-1.506L9 15.671l7.341-5.424z"/>
        <path d="M16.341 5.247a1 1 0 1 1 1.317 1.506l-8 6a1 1 0 0 1-1.317 0l-8-6a1 1 0 0 1 1.317-1.506L9 10.671l7.341-5.424z" opacity=".7"/>
    </g>
</svg>
