<svg class="ldi-71se2q" width="200px"  height="200px"  xmlns="http://www.w3.org/2000/svg" xmlns:xlink="http://www.w3.org/1999/xlink" viewBox="0 0 100 100" preserveAspectRatio="xMidYMid" style="background: none;"><!--?xml version="1.0" encoding="utf-8"?--><!--Generator: Adobe Illustrator 21.0.0, SVG Export Plug-In . SVG Version: 6.00 Build 0)--><svg version="1.1" id="圖層_1" xmlns="http://www.w3.org/2000/svg" xmlns:xlink="http://www.w3.org/1999/xlink" x="0px" y="0px" viewBox="0 0 100 100" style="transform-origin: 50px 50px 0px;" xml:space="preserve" class=""><g class="" style="transform-origin: 50px 50px 0px; transform: scale(0.6);"><g class="" style="transform-origin: 50px 50px 0px;"><style type="text/css" class="ld ld-wander-px-h" style="transform-origin: 50px 50px 0px; animation-duration: 2.7s; animation-delay: -2.7s;">.st0{fill:#D1D1D1;} .st1{fill:#454545;} .st2{fill:#464646;} .st3{fill:#FFFFFF;}</style><g class="ld ld-wander-px-h" style="transform-origin: 50px 50px 0px; animation-duration: 2.7s; animation-delay: -2.475s;"><path class="st0" d="M73.961,92.5c-6.045,0-10.962-4.432-10.962-9.879v-3.599H37.6v3.599c0,5.447-4.917,9.879-10.962,9.879 s-10.962-4.432-10.962-9.879v-3.793c-2.987-0.728-5.211-3.427-5.211-6.635V14.329c0-3.766,3.063-6.829,6.829-6.829h65.412 c3.766,0,6.829,3.063,6.829,6.829v57.865c0,2.989-1.931,5.536-4.612,6.46v3.968C84.923,88.068,80.005,92.5,73.961,92.5z" fill="rgb(209, 209, 209)" style="fill: rgb(209, 209, 209);"></path></g><g class="ld ld-wander-px-h" style="transform-origin: 50px 50px 0px; animation-duration: 2.7s; animation-delay: -2.25s;"><path class="st1" d="M83.377,10.997H17.965c-1.787,0-3.235,1.448-3.235,3.235v57.865c0,1.787,1.448,3.235,3.235,3.235h1.977v7.194 c0,3.47,3.299,6.284,7.368,6.284s7.368-2.813,7.368-6.285v-7.193h32.586v7.194c0,3.47,3.299,6.284,7.368,6.284 c4.069,0,7.368-2.813,7.368-6.284v-7.194h1.378c1.787,0,3.235-1.448,3.235-3.235V14.231C86.611,12.445,85.163,10.997,83.377,10.997z M55.77,49.753c0.207-2.427,3.421-4.433,7.213-4.433c3.792,0,7.006,2.006,7.213,4.433H55.77z M79.895,62.46 c0,2.908-2.357,5.264-5.264,5.264c-2.907,0-5.264-2.357-5.264-5.264c0-2.907,2.357-5.264,5.264-5.264 C77.539,57.196,79.895,59.553,79.895,62.46z M78.345,23.97v22.933c0,1.416-1.034,2.588-2.388,2.809 c-0.19-5.619-5.935-10.143-12.975-10.143c-7.056,0-12.811,4.546-12.976,10.183H26.325c-1.574,0-2.85-1.276-2.85-2.85V33.16h14.496 c1.787,0,3.235-1.448,3.235-3.235V21.18c0-0.02-0.003-0.04-0.003-0.06h34.291C77.069,21.12,78.345,22.396,78.345,23.97z M22.045,62.46c0-2.907,2.357-5.264,5.264-5.264s5.264,2.357,5.264,5.264c0,2.908-2.357,5.264-5.264,5.264 S22.045,65.367,22.045,62.46z" fill="#283741" style="fill: rgb(40, 55, 65);"></path></g><metadata xmlns:d="https://loading.io/stock/" class="ld ld-wander-px-h" style="transform-origin: 50px 50px 0px; animation-duration: 2.7s; animation-delay: -2.025s;">
<d:name class="ld ld-wander-px-h" style="transform-origin: 50px 50px 0px; animation-duration: 2.7s; animation-delay: -1.8s;">bus</d:name>
<d:tags class="ld ld-wander-px-h" style="transform-origin: 50px 50px 0px; animation-duration: 2.7s; animation-delay: -1.575s;">car,transportation,cargo,commute,travel,bus,map</d:tags>
<d:license class="ld ld-wander-px-h" style="transform-origin: 50px 50px 0px; animation-duration: 2.7s; animation-delay: -1.35s;">cc0</d:license>
<d:slug class="ld ld-wander-px-h" style="transform-origin: 50px 50px 0px; animation-duration: 2.7s; animation-delay: -1.125s;">71se2q</d:slug>
</metadata></g></g><style type="text/css" class="ld ld-wander-px-h" style="transform-origin: 50px 50px 0px; animation-duration: 2.7s; animation-delay: -0.9s;">path,ellipse,circle,rect,polygon,polyline,line { stroke-width: 0; }@keyframes ld-wander-px-h {
  0% {
    -webkit-transform: translate(-35px, 0);
    transform: translate(-35px, 0);
  }
  50% {
    -webkit-transform: translate(35px, 0);
    transform: translate(35px, 0);
  }
  100% {
    -webkit-transform: translate(-35px, 0);
    transform: translate(-35px, 0);
  }
}
@-webkit-keyframes ld-wander-px-h {
  0% {
    -webkit-transform: translate(-35px, 0);
    transform: translate(-35px, 0);
  }
  50% {
    -webkit-transform: translate(35px, 0);
    transform: translate(35px, 0);
  }
  100% {
    -webkit-transform: translate(-35px, 0);
    transform: translate(-35px, 0);
  }
}
.ld.ld-wander-px-h {
  -webkit-animation: ld-wander-px-h 1s infinite ease-out;
  animation: ld-wander-px-h 1s infinite ease-out;
}
</style></svg></svg>