<svg class="ldi-v16yot" width="40px"  height="40px"  xmlns="http://www.w3.org/2000/svg" xmlns:xlink="http://www.w3.org/1999/xlink" viewBox="0 0 100 100" preserveAspectRatio="xMidYMid" style="background: none;"><!--?xml version="1.0" encoding="utf-8"?--><!--Generator: Adobe Illustrator 21.0.0, SVG Export Plug-In . SVG Version: 6.00 Build 0)--><svg version="1.1" id="圖層_1" xmlns="http://www.w3.org/2000/svg" xmlns:xlink="http://www.w3.org/1999/xlink" x="0px" y="0px" viewBox="0 0 100 100" style="transform-origin: 50px 50px 0px;" xml:space="preserve" class=""><g class="" style="transform-origin: 50px 50px 0px; transform: scale(0.6);"><g class="" style="transform-origin: 50px 50px 0px;"><style type="text/css" class="ld ld-spin-fast" style="transform-origin: 50px 50px 0px; animation-duration: 1.6s; animation-delay: -1.6s;">.st0{fill:#C7B299;stroke:#333333;stroke-width:6;stroke-miterlimit:10;} .st1{fill:#F5E169;} .st2{fill:#666666;} .st3{fill:#F5E6C8;} .st4{fill:#333333;} .st5{fill:#E0E0E0;} .st6{fill:#F8B26A;} .st7{fill:#FFFFFF;stroke:#000000;stroke-width:4;stroke-miterlimit:10;} .st8{fill:#F47E60;} .st9{fill:#ABBD81;} .st10{fill:#E15B64;} .st11{fill:#666666;stroke:#221E1F;stroke-width:4.5;stroke-linejoin:round;stroke-miterlimit:10;} .st12{fill:#FFFFFF;stroke:#221E1F;stroke-width:6;stroke-linejoin:round;stroke-miterlimit:10;} .st13{fill:#77A4BD;} .st14{fill:#FFDC6C;} .st15{fill:#FFFFFF;} .st16{fill:#353035;} .st17{fill:#E0E0E0;stroke:#000000;stroke-width:6;stroke-miterlimit:10;} .st18{fill:none;stroke:#000000;stroke-width:5;stroke-linecap:round;stroke-miterlimit:10;} .st19{fill:none;stroke:#000000;stroke-width:5;stroke-miterlimit:10;} .st20{fill:none;} .st21{fill:#666666;stroke:#221E1F;stroke-width:6;stroke-linejoin:round;stroke-miterlimit:10;} .st22{fill:#FFFFFF;stroke:#221E1F;stroke-width:4.5;stroke-linejoin:round;stroke-miterlimit:10;} .st23{fill:#333333;stroke:#221E1F;stroke-width:4.5;stroke-linejoin:round;stroke-miterlimit:10;} .st24{fill:#1BD112;} .st25{fill:#FFFFFF;stroke:#333333;stroke-width:8;stroke-miterlimit:10;} .st26{fill:none;stroke:#666666;stroke-width:8;stroke-miterlimit:10;} .st27{fill:#FFFFFF;stroke:#333333;stroke-miterlimit:10;} .st28{fill:none;stroke:#333333;stroke-miterlimit:10;} .st29{stroke:#333333;stroke-miterlimit:10;} .st30{fill:none;stroke:#000000;stroke-width:4;stroke-linecap:round;stroke-miterlimit:10;} .st31{fill:none;stroke:#000000;stroke-width:6;stroke-miterlimit:10;} .st32{fill:#C33737;} .st33{fill:#849B87;} .st34{fill:#66503A;} .st35{fill:none;stroke:#333333;stroke-width:6;stroke-miterlimit:10;} .st36{fill:none;stroke:#333333;stroke-width:4;stroke-miterlimit:10;} .st37{fill:#C59B6D;} .st38{fill:#E0E0E0;stroke:#221E1F;stroke-width:4.5;stroke-linejoin:round;stroke-miterlimit:10;} .st39{fill:#666666;stroke:#000000;stroke-width:3;stroke-miterlimit:10;} .st40{fill:#F5E6C8;stroke:#000000;stroke-width:3;stroke-miterlimit:10;} .st41{fill:#FFFFFF;stroke:#808080;stroke-width:4;stroke-miterlimit:10;} .st42{fill:#808080;stroke:#808080;stroke-width:4;stroke-miterlimit:10;} .st43{fill:#666666;stroke:#B3B3B3;stroke-width:12;stroke-linecap:round;stroke-miterlimit:10;} .st44{fill:#808080;} .st45{fill:#B3B3B3;} .st46{fill:#FFFF00;stroke:#E15B64;stroke-width:6;stroke-linecap:round;stroke-linejoin:round;stroke-miterlimit:10;} .st47{fill:none;stroke:#E15B64;stroke-width:6;stroke-linecap:round;stroke-linejoin:round;stroke-miterlimit:10;} .st48{fill:#F5E6C8;stroke:#333333;stroke-width:4;stroke-miterlimit:10;}</style><g class="ld ld-spin-fast" style="transform-origin: 50px 50px 0px; animation-duration: 1.6s; animation-delay: -1.54667s;"><circle class="st0" cx="49.7" cy="50" r="40" fill="#87a6ae" stroke="#283741" style="stroke: rgb(40, 55, 65); fill: rgb(135, 166, 174);"></circle></g><g class="ld ld-spin-fast" style="transform-origin: 50px 50px 0px; animation-duration: 1.6s; animation-delay: -1.49333s;"><path class="st4" d="M66,25.6c-0.1,0-0.2,0-0.3,0c0.1,0,0.3,0,0.4,0C66.1,25.6,66,25.6,66,25.6z" fill="#283741" style="fill: rgb(40, 55, 65);"></path></g><g class="ld ld-spin-fast" style="transform-origin: 50px 50px 0px; animation-duration: 1.6s; animation-delay: -1.44s;"><path class="st4" d="M66.2,25.6c0.2,0,0.4,0.1,0.6,0.1C66.6,25.7,66.4,25.7,66.2,25.6z" fill="#283741" style="fill: rgb(40, 55, 65);"></path></g><g class="ld ld-spin-fast" style="transform-origin: 50px 50px 0px; animation-duration: 1.6s; animation-delay: -1.38667s;"><path class="st4" d="M33.2,74.2c0,0-0.1,0-0.1-0.1C33.1,74.2,33.1,74.2,33.2,74.2z" fill="#283741" style="fill: rgb(40, 55, 65);"></path></g><g class="ld ld-spin-fast" style="transform-origin: 50px 50px 0px; animation-duration: 1.6s; animation-delay: -1.33333s;"><path class="st4" d="M33.9,74.4c0,0-0.1,0-0.1,0C33.8,74.4,33.8,74.4,33.9,74.4z" fill="#283741" style="fill: rgb(40, 55, 65);"></path></g><g class="ld ld-spin-fast" style="transform-origin: 50px 50px 0px; animation-duration: 1.6s; animation-delay: -1.28s;"><path class="st4" d="M31.5,72.1c0.1,0.7,0.4,1.3,1,1.7c0,0,0.1,0,0.1,0c0,0-0.1,0-0.1-0.1C31.9,73.5,31.6,72.8,31.5,72.1z" fill="#283741" style="fill: rgb(40, 55, 65);"></path></g><g class="ld ld-spin-fast" style="transform-origin: 50px 50px 0px; animation-duration: 1.6s; animation-delay: -1.22667s;"><path class="st4" d="M66.9,25.8c0.2,0.1,0.3,0.1,0.4,0.2C67.3,26,67.1,25.9,66.9,25.8z" fill="#283741" style="fill: rgb(40, 55, 65);"></path></g><g class="ld ld-spin-fast" style="transform-origin: 50px 50px 0px; animation-duration: 1.6s; animation-delay: -1.17333s;"><path class="st4" d="M65.1,25.8c0.1,0,0.2-0.1,0.3-0.1C65.3,25.7,65.2,25.8,65.1,25.8z" fill="#283741" style="fill: rgb(40, 55, 65);"></path></g><g class="ld ld-spin-fast" style="transform-origin: 50px 50px 0px; animation-duration: 1.6s; animation-delay: -1.12s;"><path class="st4" d="M34.5,74.3c-0.1,0-0.2,0-0.3,0C34.4,74.3,34.5,74.3,34.5,74.3z" fill="#283741" style="fill: rgb(40, 55, 65);"></path></g><g class="ld ld-spin-fast" style="transform-origin: 50px 50px 0px; animation-duration: 1.6s; animation-delay: -1.06667s;"><path class="st4" d="M34,74.4c0.1,0,0.2,0,0.3,0c-0.1,0-0.3,0-0.4,0C33.9,74.4,34,74.4,34,74.4z" fill="#283741" style="fill: rgb(40, 55, 65);"></path></g><g class="ld ld-spin-fast" style="transform-origin: 50px 50px 0px; animation-duration: 1.6s; animation-delay: -1.01333s;"><path class="st4" d="M66.8,25.8c0,0,0.1,0,0.1,0.1C66.9,25.8,66.9,25.8,66.8,25.8z" fill="#283741" style="fill: rgb(40, 55, 65);"></path></g><g class="ld ld-spin-fast" style="transform-origin: 50px 50px 0px; animation-duration: 1.6s; animation-delay: -0.96s;"><path class="st4" d="M34.9,74.2c-0.1,0-0.2,0.1-0.3,0.1C34.7,74.3,34.8,74.2,34.9,74.2z" fill="#283741" style="fill: rgb(40, 55, 65);"></path></g><g class="ld ld-spin-fast" style="transform-origin: 50px 50px 0px; animation-duration: 1.6s; animation-delay: -0.906667s;"><path class="st4" d="M68.5,27.8c-0.1-0.7-0.4-1.3-1-1.7c0,0-0.1,0-0.1,0c0,0,0.1,0,0.1,0.1C68.1,26.5,68.4,27.2,68.5,27.8z" fill="#283741" style="fill: rgb(40, 55, 65);"></path></g><g class="ld ld-spin-fast" style="transform-origin: 50px 50px 0px; animation-duration: 1.6s; animation-delay: -0.853333s;"><path class="st4" d="M33.1,74.2c-0.2-0.1-0.3-0.1-0.4-0.2C32.7,74,32.9,74.1,33.1,74.2z" fill="#283741" style="fill: rgb(40, 55, 65);"></path></g><g class="ld ld-spin-fast" style="transform-origin: 50px 50px 0px; animation-duration: 1.6s; animation-delay: -0.8s;"><path class="st4" d="M66.1,25.6c0,0,0.1,0,0.1,0C66.2,25.6,66.2,25.6,66.1,25.6z" fill="#283741" style="fill: rgb(40, 55, 65);"></path></g><g class="ld ld-spin-fast" style="transform-origin: 50px 50px 0px; animation-duration: 1.6s; animation-delay: -0.746667s;"><path class="st4" d="M33.8,74.3c-0.2,0-0.4-0.1-0.6-0.1C33.4,74.3,33.6,74.3,33.8,74.3z" fill="#283741" style="fill: rgb(40, 55, 65);"></path></g><g class="ld ld-spin-fast" style="transform-origin: 50px 50px 0px; animation-duration: 1.6s; animation-delay: -0.693333s;"><path class="st4" d="M65.5,25.7c0.1,0,0.2,0,0.3,0C65.6,25.7,65.5,25.7,65.5,25.7z" fill="#283741" style="fill: rgb(40, 55, 65);"></path></g><g class="ld ld-spin-fast" style="transform-origin: 50px 50px 0px; animation-duration: 1.6s; animation-delay: -0.64s;"><polygon class="st10" points="42,42.6 42.6,43 58.9,55 59.5,55.4 63.5,31.5 " fill="rgb(225, 91, 100)" style="fill: rgb(225, 91, 100);"></polygon></g><g class="ld ld-spin-fast" style="transform-origin: 50px 50px 0px; animation-duration: 1.6s; animation-delay: -0.586667s;"><polygon class="st6" points="57.4,57 41.1,45 40.5,44.6 36.5,68.5 58,57.4 " fill="#1c9cbf" style="fill: rgb(28, 156, 191);"></polygon></g><g class="ld ld-spin-fast" style="transform-origin: 50px 50px 0px; animation-duration: 1.6s; animation-delay: -0.533333s;"><path class="st4" d="M67.5,26.1C67.5,26.1,67.4,26.1,67.5,26.1c-0.2-0.1-0.4-0.2-0.5-0.3c0,0-0.1,0-0.1-0.1 c-0.2-0.1-0.4-0.1-0.6-0.1c0,0-0.1,0-0.1,0c-0.1,0-0.3,0-0.4,0c-0.1,0-0.2,0-0.3,0c-0.1,0-0.2,0.1-0.3,0.1c-0.1,0-0.2,0.1-0.3,0.1 L37.9,39.8c-0.1,0.1-0.1,0.1-0.2,0.1c-0.1,0.1-0.2,0.1-0.3,0.2c-0.1,0.1-0.1,0.1-0.2,0.2c-0.1,0.1-0.1,0.2-0.2,0.2 c-0.1,0.1-0.1,0.2-0.2,0.3c0,0.1-0.1,0.2-0.1,0.3c0,0.1-0.1,0.2-0.1,0.3c0,0,0,0.1,0,0.1l-5.1,29.9c0,0.2,0,0.5,0,0.7 c0.1,0.7,0.4,1.3,1,1.7c0,0,0.1,0,0.1,0.1c0.1,0.1,0.3,0.2,0.4,0.2c0,0,0.1,0,0.1,0.1c0.2,0.1,0.4,0.1,0.6,0.1c0,0,0.1,0,0.1,0 c0.1,0,0.3,0,0.4,0c0.1,0,0.2,0,0.3,0c0.1,0,0.2-0.1,0.3-0.1c0.1,0,0.2-0.1,0.3-0.1l26.9-13.9c0.1-0.1,0.1-0.1,0.2-0.1 c0.1-0.1,0.2-0.1,0.3-0.2c0.1-0.1,0.1-0.1,0.2-0.2c0.1-0.1,0.1-0.2,0.2-0.2c0.1-0.1,0.1-0.2,0.2-0.3c0-0.1,0.1-0.2,0.1-0.3 c0-0.1,0.1-0.2,0.1-0.3c0,0,0-0.1,0-0.1l5.1-29.9c0-0.2,0-0.5,0-0.7C68.4,27.2,68.1,26.5,67.5,26.1z M40.5,44.6l0.5,0.4l16.4,12 l0.6,0.4L36.5,68.5L40.5,44.6z M59.5,55.4L58.9,55L42.6,43L42,42.6l21.5-11.1L59.5,55.4z" fill="#283741" style="fill: rgb(40, 55, 65);"></path></g><metadata xmlns:d="https://loading.io/stock/" class="ld ld-spin-fast" style="transform-origin: 50px 50px 0px; animation-duration: 1.6s; animation-delay: -0.48s;">
<d:name class="ld ld-spin-fast" style="transform-origin: 50px 50px 0px; animation-duration: 1.6s; animation-delay: -0.426667s;">compass</d:name>
<d:tags class="ld ld-spin-fast" style="transform-origin: 50px 50px 0px; animation-duration: 1.6s; animation-delay: -0.373333s;">navigation,direction,magnetic,guide,way,compass,web application</d:tags>
<d:license class="ld ld-spin-fast" style="transform-origin: 50px 50px 0px; animation-duration: 1.6s; animation-delay: -0.32s;">rf</d:license>
<d:slug class="ld ld-spin-fast" style="transform-origin: 50px 50px 0px; animation-duration: 1.6s; animation-delay: -0.266667s;">v16yot</d:slug>
</metadata></g></g><style type="text/css" class="ld ld-spin-fast" style="transform-origin: 50px 50px 0px; animation-duration: 1.6s; animation-delay: -0.213333s;">path,ellipse,circle,rect,polygon,polyline,line { stroke-width: 0; }@keyframes ld-spin-fast {
  0% {
    -webkit-transform: rotate(0);
    transform: rotate(0);
    animation-timing-function: cubic-bezier(0.55, 0.055, 0.675, 0.19);
  }
  50% {
    -webkit-transform: rotate(900deg);
    transform: rotate(900deg);
    animation-timing-function: cubic-bezier(0.215, 0.61, 0.355, 1);
  }
  100% {
    -webkit-transform: rotate(1800deg);
    transform: rotate(1800deg);
  }
}
@-webkit-keyframes ld-spin-fast {
  0% {
    -webkit-transform: rotate(0);
    transform: rotate(0);
    animation-timing-function: cubic-bezier(0.55, 0.055, 0.675, 0.19);
  }
  50% {
    -webkit-transform: rotate(900deg);
    transform: rotate(900deg);
    animation-timing-function: cubic-bezier(0.215, 0.61, 0.355, 1);
  }
  100% {
    -webkit-transform: rotate(1800deg);
    transform: rotate(1800deg);
  }
}
.ld.ld-spin-fast {
  -webkit-animation: ld-spin-fast 1s infinite;
  animation: ld-spin-fast 1s infinite;
}
</style></svg></svg>