<svg class="ldi-2yncid" width="40px"  height="40px"  xmlns="http://www.w3.org/2000/svg" xmlns:xlink="http://www.w3.org/1999/xlink" viewBox="0 0 100 100" preserveAspectRatio="xMidYMid" style="background: none;"><!--?xml version="1.0" encoding="utf-8"?--><!--Generator: Adobe Illustrator 21.0.0, SVG Export Plug-In . SVG Version: 6.00 Build 0)--><svg version="1.1" id="Layer_1" xmlns="http://www.w3.org/2000/svg" xmlns:xlink="http://www.w3.org/1999/xlink" x="0px" y="0px" viewBox="0 0 100 100" style="transform-origin: 50px 50px 0px;" xml:space="preserve" class=""><g class="" style="transform-origin: 50px 50px 0px; transform: scale(0.72);"><g class="" style="transform-origin: 50px 50px 0px;"><style type="text/css" class="ld ld-breath" style="transform-origin: 50px 50px 0px; animation-duration: 3.2s; animation-delay: -3.2s;">.st0{fill:#999998;} .st1{fill:#323232;} .st2{fill:#CCCCCB;} .st3{fill:#ACBD81;} .st4{fill:#849B87;}</style><g class="ld ld-breath" style="transform-origin: 50px 50px 0px; animation-duration: 3.2s; animation-delay: -2.95385s;"><path id="XMLID_729_" class="st1" d="M78.933,50.066c0,0.499-0.2,0.998-0.601,1.365l-25.24,31.21v5.568 c0,1.612,1.916,2.455,3.104,1.365l32.803-38.144c0.4-0.367,0.601-0.866,0.601-1.365c0-0.499-0.2-0.998-0.601-1.365L56.197,10.556 c-1.188-1.089-3.104-0.247-3.104,1.365v5.568l25.24,31.21C78.733,49.067,78.933,49.567,78.933,50.066z" fill="#283741" style="fill: rgb(40, 55, 65);"></path></g><g class="ld ld-breath" style="transform-origin: 50px 50px 0px; animation-duration: 3.2s; animation-delay: -2.70769s;"><path id="XMLID_728_" class="st0" d="M57.6,50.066c0,0.499-0.2,0.998-0.601,1.365l-25.24,31.21v5.568 c0,1.612,1.916,2.455,3.104,1.365l32.803-38.144c0.4-0.367,0.601-0.866,0.601-1.365c0-0.499-0.2-0.998-0.601-1.365L34.864,10.556 c-1.188-1.089-3.104-0.247-3.104,1.365v5.568l25.24,31.21C57.4,49.067,57.6,49.567,57.6,50.066z" fill="rgba(15.686274509803921%,21.568627450980394%,25.49019607843137%,0.713)" style="fill: rgba(40, 55, 65, 0.714);"></path></g><g class="ld ld-breath" style="transform-origin: 50px 50px 0px; animation-duration: 3.2s; animation-delay: -2.46154s;"><path id="XMLID_727_" class="st2" d="M36.241,50.066c0,0.499-0.2,0.998-0.601,1.365L10.4,82.641v5.568 c0,1.612,1.916,2.455,3.104,1.365l32.803-38.144c0.4-0.367,0.601-0.866,0.601-1.365c0-0.499-0.2-0.998-0.601-1.365L13.504,10.556 C12.316,9.467,10.4,10.31,10.4,11.922v5.568L35.64,48.7C36.041,49.067,36.241,49.567,36.241,50.066z" fill="rgba(15.686274509803921%,21.568627450980394%,25.49019607843137%,0.479)" style="fill: rgba(40, 55, 65, 0.48);"></path></g><metadata xmlns:d="https://loading.io/stock/" class="ld ld-breath" style="transform-origin: 50px 50px 0px; animation-duration: 3.2s; animation-delay: -2.21538s;">
<d:name class="ld ld-breath" style="transform-origin: 50px 50px 0px; animation-duration: 3.2s; animation-delay: -1.96923s;">right</d:name>
<d:tags class="ld ld-breath" style="transform-origin: 50px 50px 0px; animation-duration: 3.2s; animation-delay: -1.72308s;">east,foward,redo,next,direction,way,turn,chevron,dart,right,arrow</d:tags>
<d:license class="ld ld-breath" style="transform-origin: 50px 50px 0px; animation-duration: 3.2s; animation-delay: -1.47692s;">cc-by</d:license>
<d:slug class="ld ld-breath" style="transform-origin: 50px 50px 0px; animation-duration: 3.2s; animation-delay: -1.23077s;">2yncid</d:slug>
</metadata></g></g><style type="text/css" class="ld ld-breath" style="transform-origin: 50px 50px 0px; animation-duration: 3.2s; animation-delay: -0.984615s;">path,ellipse,circle,rect,polygon,polyline,line { stroke-width: 0; }@keyframes ld-breath {
  0% {
    -webkit-transform: scale(0.86);
    transform: scale(0.86);
  }
  50% {
    -webkit-transform: scale(1.06);
    transform: scale(1.06);
  }
  100% {
    -webkit-transform: scale(0.86);
    transform: scale(0.86);
  }
}
@-webkit-keyframes ld-breath {
  0% {
    -webkit-transform: scale(0.86);
    transform: scale(0.86);
  }
  50% {
    -webkit-transform: scale(1.06);
    transform: scale(1.06);
  }
  100% {
    -webkit-transform: scale(0.86);
    transform: scale(0.86);
  }
}
.ld.ld-breath {
  -webkit-animation: ld-breath 1s infinite;
  animation: ld-breath 1s infinite;
}
</style></svg></svg>