<?xml version="1.0" encoding="UTF-8"?>
<svg width="36px" height="42px" viewBox="0 0 36 42" version="1.1" xmlns="http://www.w3.org/2000/svg" xmlns:xlink="http://www.w3.org/1999/xlink">
    <!-- Generator: Sketch 48.1 (47250) - http://www.bohemiancoding.com/sketch -->
    <title>seat_white</title>
    <desc>Created with Sketch.</desc>
    <defs>
        <rect id="path-1" x="0" y="4" width="36" height="34" rx="4"></rect>
        <path d="M15,0 L34,0 C35.1045695,-2.02906125e-16 36,0.8954305 36,2 L36,8 L15,8 C13.8954305,8 13,7.1045695 13,6 L13,2 C13,0.8954305 13.8954305,2.02906125e-16 15,0 Z" id="path-2"></path>
        <path d="M15,34 L36,34 L36,40 C36,41.1045695 35.1045695,42 34,42 L15,42 C13.8954305,42 13,41.1045695 13,40 L13,36 C13,34.8954305 13.8954305,34 15,34 Z" id="path-3"></path>
        <rect id="path-4" x="28" y="7" width="8" height="28"></rect>
    </defs>
    <g id="Page-1" stroke="none" stroke-width="1" fill="none" fill-rule="evenodd">
        <g id="seat_white">
            <g id="Rectangle-5">
                <use fill="#FFFFFF" fill-rule="evenodd" xlink:href="#path-1"></use>
                <rect stroke="#8CA5AF" stroke-width="1" x="0.5" y="4.5" width="35" height="33" rx="4"></rect>
            </g>
            <g id="Rectangle-7">
                <use fill="#FFFFFF" fill-rule="evenodd" xlink:href="#path-2"></use>
                <path stroke="#8CA5AF" stroke-width="1" d="M35.5,7.5 L35.5,2 C35.5,1.17157288 34.8284271,0.5 34,0.5 L15,0.5 C14.1715729,0.5 13.5,1.17157288 13.5,2 L13.5,6 C13.5,6.82842712 14.1715729,7.5 15,7.5 L35.5,7.5 Z"></path>
            </g>
            <g id="Rectangle-7">
                <use fill="#FFFFFF" fill-rule="evenodd" xlink:href="#path-3"></use>
                <path stroke="#8CA5AF" stroke-width="1" d="M35.5,34.5 L15,34.5 C14.1715729,34.5 13.5,35.1715729 13.5,36 L13.5,40 C13.5,40.8284271 14.1715729,41.5 15,41.5 L34,41.5 C34.8284271,41.5 35.5,40.8284271 35.5,40 L35.5,34.5 Z"></path>
            </g>
            <g id="Rectangle-8">
                <use fill="#FFFFFF" fill-rule="evenodd" xlink:href="#path-4"></use>
                <rect stroke="#8CA5AF" stroke-width="1" x="28.5" y="7.5" width="7" height="27"></rect>
            </g>
        </g>
    </g>
</svg>